<?xml version="1.0" encoding="UTF-8" standalone="no"?>
<!-- Created with Inkscape (http://www.inkscape.org/) -->

<svg
   version="1.1"
   id="svg6347"
   width="136"
   height="132"
   viewBox="0 0 136 132"
   sodipodi:docname="selection-mod-hardrock@2x.svg"
   inkscape:version="1.1.2 (0a00cf5339, 2022-02-04, custom)"
   xmlns:inkscape="http://www.inkscape.org/namespaces/inkscape"
   xmlns:sodipodi="http://sodipodi.sourceforge.net/DTD/sodipodi-0.dtd"
   xmlns="http://www.w3.org/2000/svg"
   xmlns:svg="http://www.w3.org/2000/svg">
  <defs
     id="defs6351" />
  <sodipodi:namedview
     id="namedview6349"
     pagecolor="#505050"
     bordercolor="#eeeeee"
     borderopacity="1"
     inkscape:pageshadow="0"
     inkscape:pageopacity="0"
     inkscape:pagecheckerboard="0"
     showgrid="false"
     inkscape:zoom="4.6336922"
     inkscape:cx="59.671637"
     inkscape:cy="78.01554"
     inkscape:window-width="1920"
     inkscape:window-height="1056"
     inkscape:window-x="0"
     inkscape:window-y="0"
     inkscape:window-maximized="1"
     inkscape:current-layer="g6353" />
  <g
     inkscape:groupmode="layer"
     inkscape:label="Image"
     id="g6353">
    <text
       xml:space="preserve"
       style="font-style:normal;font-variant:normal;font-weight:600;font-stretch:normal;font-size:26.6667px;line-height:1.25;font-family:'Fira Code';-inkscape-font-specification:'Fira Code, Semi-Bold';font-variant-ligatures:normal;font-variant-caps:normal;font-variant-numeric:normal;font-variant-east-asian:normal;fill:#ffffff;fill-opacity:1;stroke:none;stroke-opacity:1"
       x="19.022127"
       y="93.241219"
       id="text2826"><tspan
         sodipodi:role="line"
         x="19.022127"
         y="93.241219"
         id="tspan6520">Hard</tspan><tspan
         sodipodi:role="line"
         x="19.022127"
         y="126.57459"
         id="tspan5288">  Rock</tspan></text>
    <rect
       style="fill:#ff00cd;fill-opacity:1;stroke:none;stroke-width:0.764;stroke-opacity:0"
       id="rect7142"
       width="136"
       height="132"
       x="0"
       y="0" />
    <rect
       style="fill:#ffffff;fill-opacity:1;stroke:none;stroke-width:0.444327"
       id="rect1931"
       width="49.512218"
       height="4.7637482"
       x="21.742077"
       y="25.80596"
       transform="matrix(0.9229773,0.3848544,0,1,0,0)" />
    <rect
       style="fill:#ffffff;fill-opacity:1;stroke:none;stroke-width:0.444327"
       id="rect1931-8"
       width="49.512218"
       height="4.7637482"
       x="21.742077"
       y="34.080574"
       transform="matrix(0.9229773,0.3848544,0,1,0,0)" />
    <rect
       style="fill:#ffffff;fill-opacity:1;stroke:none;stroke-width:0.444327"
       id="rect1931-4"
       width="49.512218"
       height="4.7637482"
       x="91.878044"
       y="-3.217896"
       transform="matrix(0.9229773,0.3848544,0,1,0,0)" />
    <rect
       style="fill:#ffffff;fill-opacity:1;stroke:none;stroke-width:0.444327"
       id="rect1931-45"
       width="49.512218"
       height="4.7637482"
       x="91.878044"
       y="5.0567183"
       transform="matrix(0.9229773,0.3848544,0,1,0,0)" />
    <path
       id="rect2518-0-4"
       style="fill:#ffffff;fill-opacity:1;stroke:none;stroke-width:0.85663"
       d="m 60.465172,57.992236 v 23.143061 a 9.9348557,9.9348557 0 0 0 -4.632248,-1.147456 9.9348557,9.9348557 0 0 0 -9.935193,9.935193 9.9348557,9.9348557 0 0 0 9.935193,9.935193 9.9348557,9.9348557 0 0 0 9.933172,-9.935193 V 57.992236 Z" />
    <path
       id="rect2518-0-4-5"
       style="fill:#ffffff;fill-opacity:1;stroke:none;stroke-width:0.85663"
       d="m 20.067439,38.937242 v 23.14306 a 9.9348557,9.9348557 0 0 0 -4.632248,-1.147456 9.9348557,9.9348557 0 0 0 -9.9351922,9.935193 9.9348557,9.9348557 0 0 0 9.9351922,9.935193 9.9348557,9.9348557 0 0 0 9.933172,-9.935193 V 38.937242 Z" />
    <path
       style="fill:#ffffff;fill-opacity:1;stroke:none;stroke-width:0.85663"
       d="m 40.266303,48.464738 v 23.143061 a 9.9348557,9.9348557 0 0 0 -4.632248,-1.147456 9.9348557,9.9348557 0 0 0 -9.935193,9.935193 9.9348557,9.9348557 0 0 0 9.935193,9.935193 9.9348557,9.9348557 0 0 0 9.933172,-9.935193 V 48.464738 Z"
       id="rect2518-0-4-0" />
    <path
       id="rect2518-0-4-3"
       style="fill:#ffffff;fill-opacity:1;stroke:none;stroke-width:0.85663"
       d="m 125.19907,55.960513 v 23.14306 a 9.9348557,9.9348557 0 0 0 -4.63225,-1.147456 9.9348557,9.9348557 0 0 0 -9.93519,9.935193 9.9348557,9.9348557 0 0 0 9.93519,9.935193 A 9.9348557,9.9348557 0 0 0 130.5,87.89131 V 55.960513 Z" />
    <path
       id="rect2518-0-4-5-6"
       style="fill:#ffffff;fill-opacity:1;stroke:none;stroke-width:0.85663"
       d="m 84.801334,36.905518 v 23.14306 a 9.9348557,9.9348557 0 0 0 -4.632247,-1.147456 9.9348557,9.9348557 0 0 0 -9.935193,9.935193 9.9348557,9.9348557 0 0 0 9.935193,9.935194 9.9348557,9.9348557 0 0 0 9.933172,-9.935194 V 36.905518 Z" />
    <path
       id="rect2518-0-4-0-1"
       style="fill:#ffffff;fill-opacity:1;stroke:none;stroke-width:0.85663"
       d="m 105.0002,46.433015 v 23.14306 a 9.9348557,9.9348557 0 0 0 -4.63224,-1.147456 9.9348557,9.9348557 0 0 0 -9.935203,9.935193 9.9348557,9.9348557 0 0 0 9.935203,9.935193 9.9348557,9.9348557 0 0 0 9.93317,-9.935193 V 46.433015 Z" />
    <rect
       style="fill:#ffffff;fill-opacity:1;stroke:none;stroke-width:0.850132"
       id="rect2518-06"
       width="5.3009233"
       height="31.447954"
       x="125.19906"
       y="51.196762" />
    <rect
       style="fill:#ffffff;fill-opacity:1;stroke:none;stroke-width:0.850132"
       id="rect2518-1"
       width="5.3009233"
       height="31.447954"
       x="105.00019"
       y="44.364361" />
    <rect
       style="fill:#ffffff;fill-opacity:1;stroke:none;stroke-width:0.850132"
       id="rect2518"
       width="5.3009233"
       height="31.447954"
       x="60.465176"
       y="53.228489" />
    <rect
       style="fill:#ffffff;fill-opacity:1;stroke:none;stroke-width:0.850132"
       id="rect2518-0"
       width="5.3009233"
       height="31.447954"
       x="40.266304"
       y="46.396084" />
    <rect
       style="fill:#ffffff;fill-opacity:1;stroke:none;stroke-width:0.850132"
       id="rect2518-6"
       width="5.3009233"
       height="31.447954"
       x="105.00019"
       y="46.433014" />
  </g>
</svg>
