<?xml version="1.0" encoding="UTF-8" standalone="no"?>
<!-- Created with Inkscape (http://www.inkscape.org/) -->

<svg
   version="1.1"
   id="svg857"
   width="256"
   height="256"
   viewBox="0 0 256 256"
   sodipodi:docname="fruit-bananas@2x.svg"
   inkscape:version="1.2 (dc2aedaf03, 2022-05-15)"
   xmlns:inkscape="http://www.inkscape.org/namespaces/inkscape"
   xmlns:sodipodi="http://sodipodi.sourceforge.net/DTD/sodipodi-0.dtd"
   xmlns="http://www.w3.org/2000/svg"
   xmlns:svg="http://www.w3.org/2000/svg">
  <defs
     id="defs861" />
  <sodipodi:namedview
     id="namedview859"
     pagecolor="#505050"
     bordercolor="#eeeeee"
     borderopacity="1"
     inkscape:pageshadow="0"
     inkscape:pageopacity="0"
     inkscape:pagecheckerboard="0"
     inkscape:showpageshadow="0"
     inkscape:deskcolor="#505050"
     showgrid="false"
     inkscape:zoom="2.0993242"
     inkscape:cx="119.56228"
     inkscape:cy="109.79724"
     inkscape:window-width="1920"
     inkscape:window-height="1056"
     inkscape:window-x="0"
     inkscape:window-y="0"
     inkscape:window-maximized="1"
     inkscape:current-layer="g863" />
  <g
     inkscape:groupmode="layer"
     inkscape:label="Image"
     id="g863">
    <path
       id="path1127-9"
       style="fill:#ffffff;fill-opacity:1;stroke:none;stroke-width:9.8889;stroke-opacity:1"
       d="M 85.080078 35.826172 C 40.631295 55.559782 15.925736 105.18462 28.912109 153.65039 C 43.28509 207.29109 98.35312 239.08728 151.99414 224.72461 L 151.99609 224.72461 C 157.07719 223.32421 161.97322 221.39464 166.76367 219.2207 C 126.34685 215.80081 91.38948 189.40088 77.044922 151.49414 C 77.013052 151.41034 76.982832 151.32605 76.951172 151.24219 C 76.409403 149.79942 75.895293 148.34254 75.414062 146.86719 C 75.362233 146.70922 75.306959 146.55279 75.255859 146.39453 C 74.758762 144.84579 74.286047 143.28406 73.857422 141.70117 C 73.850122 141.67427 73.841294 141.64799 73.833984 141.62109 L 73.833984 141.61914 L 73.832031 141.61523 L 73.832031 141.61328 L 73.830078 141.60938 C 73.717045 141.18415 73.627046 140.75764 73.519531 140.33203 C 73.276076 139.36826 73.031692 138.40486 72.816406 137.43945 C 72.674116 136.80142 72.555855 136.16202 72.425781 135.52344 C 72.269368 134.75544 72.105621 133.98731 71.966797 133.21875 C 71.838694 132.50975 71.732378 131.80109 71.619141 131.0918 C 71.508493 130.39846 71.39338 129.70513 71.296875 129.01172 C 71.19569 128.28508 71.113101 127.55854 71.027344 126.83203 C 70.946764 126.14876 70.863872 125.46617 70.796875 124.7832 C 70.723095 124.0321 70.666839 123.28179 70.609375 122.53125 C 70.560405 121.89041 70.509785 121.24964 70.472656 120.60938 C 70.427356 119.83048 70.397037 119.05322 70.369141 118.27539 C 70.346901 117.65191 70.325573 117.02889 70.314453 116.40625 C 70.300543 115.63517 70.297741 114.86526 70.300781 114.0957 C 70.303381 113.47206 70.310579 112.84904 70.324219 112.22656 C 70.341289 111.44162 70.365831 110.65786 70.400391 109.875 C 70.426681 109.28301 70.459844 108.69223 70.496094 108.10156 C 70.545624 107.29087 70.601758 106.48177 70.669922 105.67383 C 70.714712 105.14478 70.767573 104.6176 70.820312 104.08984 C 70.907382 103.2158 70.998695 102.34286 71.107422 101.47266 C 71.161942 101.03749 71.225246 100.60405 71.285156 100.16992 C 71.415293 99.224462 71.549557 98.280023 71.705078 97.339844 C 71.758118 97.019894 71.820984 96.702102 71.876953 96.382812 C 72.061052 95.330254 72.251129 94.279424 72.466797 93.234375 C 72.482477 93.158575 72.501728 93.083602 72.517578 93.007812 C 76.167238 75.517559 84.234355 59.152785 95.986328 45.542969 A 29.453499 14.726749 30 0 1 85.080078 35.826172 z M 100.38672 48.169922 C 92.861921 56.720758 86.849918 66.415678 82.625 76.853516 C 80.498476 82.107181 78.823211 87.543313 77.607422 93.099609 C 77.543712 93.391449 77.475185 93.68212 77.414062 93.974609 C 77.239486 94.808009 77.083163 95.645856 76.929688 96.484375 C 76.855468 96.890965 76.780175 97.297349 76.710938 97.705078 C 76.572731 98.516727 76.446442 99.330594 76.328125 100.14648 C 76.263375 100.59437 76.203263 101.04311 76.144531 101.49219 C 76.042986 102.26613 75.944865 103.04111 75.861328 103.81836 C 75.806078 104.33436 75.762119 104.8518 75.714844 105.36914 C 75.646334 106.11569 75.577181 106.8622 75.525391 107.61133 C 75.487381 108.16409 75.464407 108.7194 75.435547 109.27344 C 75.398447 109.98094 75.352166 110.68709 75.330078 111.39648 C 75.329895 111.40248 75.330259 111.40816 75.330078 111.41406 C 75.292428 112.6426 75.277436 113.87218 75.285156 115.10547 C 75.288056 115.5844 75.308609 116.06539 75.318359 116.54492 C 75.335069 117.3549 75.352192 118.16512 75.388672 118.97656 C 75.414122 119.54599 75.454972 120.11553 75.490234 120.68555 C 75.537054 121.43958 75.586345 122.19442 75.650391 122.94922 C 75.696941 123.49903 75.750881 124.0495 75.806641 124.59961 C 75.884901 125.37043 75.971943 126.14095 76.068359 126.91211 C 76.137469 127.4655 76.210545 128.01881 76.289062 128.57227 C 76.399345 129.34888 76.521497 130.12584 76.650391 130.90234 C 76.739061 131.43687 76.826277 131.9715 76.923828 132.50586 C 77.081516 133.3692 77.256533 134.23118 77.4375 135.09375 C 77.52858 135.52803 77.61197 135.96247 77.708984 136.39648 C 78.000932 137.70213 78.314145 139.00823 78.660156 140.31055 C 78.660685 140.31255 78.661509 140.31441 78.662109 140.31641 L 78.662109 140.31836 L 78.664062 140.32422 C 79.08266 141.86515 79.538175 143.39184 80.027344 144.9043 C 80.064474 145.01985 80.107013 145.13271 80.144531 145.24805 C 80.619661 146.69914 81.121423 148.13973 81.660156 149.5625 C 89.667003 170.70847 104.62005 188.62639 124.20117 200.29883 C 147.91521 207.41978 173.51351 204.49683 195.00195 192.17969 C 195.00395 192.17869 195.00581 192.17678 195.00781 192.17578 C 198.84061 189.92593 202.43317 187.32076 205.88672 184.53711 C 167.07929 191.13484 127.69459 173.11944 107.60938 138.48438 L 107.60547 138.47852 L 107.60547 138.47656 L 107.60352 138.47461 L 107.60156 138.4707 C 106.97134 137.37411 106.37133 136.26694 105.78906 135.1543 C 105.58138 134.75752 105.38521 134.3577 105.18359 133.95898 C 104.85908 133.3171 104.53925 132.67402 104.23047 132.02734 C 103.35715 130.19898 102.55124 128.35123 101.80273 126.48828 C 101.68088 126.18479 101.56384 125.88049 101.44531 125.57617 C 100.69805 123.65939 100.00354 121.72928 99.386719 119.7832 C 99.351619 119.67221 99.321809 119.56029 99.287109 119.44922 C 98.64814 117.40718 98.080574 115.35207 97.583984 113.28516 C 97.574984 113.24666 97.563887 113.20845 97.554688 113.16992 C 97.055948 111.08253 96.639776 108.9842 96.285156 106.87891 C 96.261356 106.73684 96.236091 106.59525 96.212891 106.45312 C 93.077371 87.306872 95.887232 67.605694 104.22852 50.083984 A 29.453499 14.726749 30 0 1 100.38672 48.169922 z M 108.91211 51.966797 C 100.86165 68.692166 98.144232 87.529098 101.16797 105.82422 C 101.18167 105.90692 101.19508 105.98964 101.20898 106.07227 C 101.54561 108.07417 101.94924 110.06966 102.42383 112.05469 C 102.49693 112.35952 102.57988 112.66247 102.65625 112.9668 C 102.96962 114.21927 103.31276 115.46791 103.68164 116.71094 C 103.84397 117.2568 103.99884 117.80388 104.17188 118.34766 C 104.32197 118.82021 104.48826 119.28888 104.64648 119.75977 C 104.86813 120.41837 105.08863 121.07731 105.32617 121.73242 C 105.48613 122.17415 105.65701 122.61269 105.82422 123.05273 C 106.07996 123.72496 106.34062 124.39642 106.61328 125.06445 C 106.78886 125.49501 106.9697 125.9248 107.15234 126.35352 C 107.43966 127.02742 107.73822 127.69809 108.04297 128.36719 C 108.23671 128.79279 108.42808 129.21902 108.62891 129.64258 C 108.96287 130.34659 109.3125 131.04609 109.66602 131.74414 C 109.84761 132.1028 110.0222 132.46328 110.20898 132.82031 C 110.76107 133.8754 111.33031 134.92493 111.92773 135.96484 C 111.92873 135.96684 111.93064 135.9687 111.93164 135.9707 L 111.93555 135.97852 C 122.41739 153.94751 138.7899 167.72682 158.26953 175.00977 C 182.33767 177.70926 206.33382 169.36431 223.51562 152.28125 C 226.05587 149.70414 228.37895 146.93426 230.54297 144.04297 C 198.81291 158.17676 161.1852 151.6576 136.11719 126.68164 L 136.11328 126.67773 L 136.11133 126.67383 C 116.43541 106.91979 108.26804 79.379039 112.57227 53.070312 A 29.453499 14.726749 30 0 1 108.91211 51.966797 z " />
    <ellipse
       style="fill:#ffffff;fill-opacity:1;stroke:none;stroke-width:5;stroke-dasharray:none;stroke-opacity:1"
       id="path2019"
       cx="109.61633"
       cy="-23.157368"
       rx="20.616957"
       ry="10.308478"
       transform="rotate(30)" />
  </g>
</svg>
