<?xml version="1.0" encoding="UTF-8" standalone="no"?>
<!-- Created with Inkscape (http://www.inkscape.org/) -->

<svg
   version="1.1"
   id="svg1097"
   width="256"
   height="256"
   viewBox="0 0 256 256"
   sodipodi:docname="fruit-orange@2x.svg"
   inkscape:version="1.2 (dc2aedaf03, 2022-05-15)"
   xmlns:inkscape="http://www.inkscape.org/namespaces/inkscape"
   xmlns:sodipodi="http://sodipodi.sourceforge.net/DTD/sodipodi-0.dtd"
   xmlns="http://www.w3.org/2000/svg"
   xmlns:svg="http://www.w3.org/2000/svg">
  <defs
     id="defs1101" />
  <sodipodi:namedview
     id="namedview1099"
     pagecolor="#505050"
     bordercolor="#eeeeee"
     borderopacity="1"
     inkscape:pageshadow="0"
     inkscape:pageopacity="0"
     inkscape:pagecheckerboard="0"
     inkscape:showpageshadow="0"
     inkscape:deskcolor="#505050"
     showgrid="false"
     inkscape:zoom="2.082673"
     inkscape:cx="127.72048"
     inkscape:cy="128.92086"
     inkscape:window-width="1920"
     inkscape:window-height="1056"
     inkscape:window-x="0"
     inkscape:window-y="0"
     inkscape:window-maximized="1"
     inkscape:current-layer="g1103" />
  <g
     inkscape:groupmode="layer"
     inkscape:label="Image"
     id="g1103">
    <path
       id="path3691-5-9"
       style="fill:#ffffff;stroke-width:6.32325"
       d="M 128 23.207031 A 104.79321 104.79321 0 0 0 87.003906 31.730469 A 158.74285 158.74285 0 0 1 102.32422 49.121094 A 130.99151 130.99151 0 0 0 74.566406 67.271484 A 158.74285 158.74285 0 0 0 53.527344 54.650391 A 104.79321 104.79321 0 0 0 23.207031 128 A 104.79321 104.79321 0 0 0 128 232.79297 A 104.79321 104.79321 0 0 0 232.79297 128 A 104.79321 104.79321 0 0 0 128 23.207031 z " />
    <path
       id="path1003-7"
       style="fill:#ffffff;fill-opacity:1;stroke-width:7.66287"
       d="M 48.595703,9.9824219 A 126.99428,126.99428 0 0 1 30.921875,38.042969 126.99428,126.99428 0 0 1 27.083984,41.982422 126.99428,126.99428 0 0 1 73.535156,62.683594 104.79321,104.79321 0 0 1 95.742188,48.164062 126.99428,126.99428 0 0 0 76.347656,27.673828 126.99428,126.99428 0 0 0 48.595703,9.9824219 Z" />
  </g>
</svg>
