<?xml version="1.0" encoding="UTF-8" standalone="no"?>
<!-- Created with Inkscape (http://www.inkscape.org/) -->

<svg
   version="1.1"
   id="svg887"
   width="612"
   height="640"
   viewBox="0 0 612 640"
   sodipodi:docname="fruit-catcher-fail@2x.svg"
   xml:space="preserve"
   inkscape:version="1.2.2 (b0a8486541, 2022-12-01)"
   xmlns:inkscape="http://www.inkscape.org/namespaces/inkscape"
   xmlns:sodipodi="http://sodipodi.sourceforge.net/DTD/sodipodi-0.dtd"
   xmlns="http://www.w3.org/2000/svg"
   xmlns:svg="http://www.w3.org/2000/svg"><defs
     id="defs891" /><sodipodi:namedview
     id="namedview889"
     pagecolor="#505050"
     bordercolor="#eeeeee"
     borderopacity="1"
     inkscape:pageshadow="0"
     inkscape:pageopacity="0"
     inkscape:pagecheckerboard="0"
     inkscape:showpageshadow="0"
     inkscape:deskcolor="#505050"
     showgrid="false"
     inkscape:zoom="1.2236415"
     inkscape:cx="376.74434"
     inkscape:cy="303.602"
     inkscape:window-width="1920"
     inkscape:window-height="1056"
     inkscape:window-x="0"
     inkscape:window-y="0"
     inkscape:window-maximized="1"
     inkscape:current-layer="g893" /><g
     inkscape:groupmode="layer"
     inkscape:label="Image"
     id="g893"><path
       id="path1086-3"
       style="fill:#000000;fill-opacity:1;stroke:#00ccff;stroke-width:10;stroke-linecap:round;stroke-linejoin:miter;stroke-dasharray:none;stroke-opacity:1"
       d="m 311.9805,414.07802 c -13.63889,15.43476 -28.02385,42.82288 -43.5918,89.15235 -7.81799,0.37448 29.03163,54.62981 57.46094,79.07422 -122.24076,41.17446 39.00523,54.56379 57.80469,26.10547 -17.46346,-49.56957 -27.08405,-65.79129 -55.81055,-107.75 67.43463,-82.67319 28.90625,-165.17383 28.90625,-165.17383 29.25566,-23.29218 58.15866,-45.84831 94.43555,-83.85352 -20.03493,-52.8382 -29.76265,-79.89534 -39.71875,-117.11523 11.87229,-26.73001 -1.25019,-37.713558 -16.03711,-37.111328 -14.78692,0.60223 -31.23772,12.789798 -26.02149,32.406248 3.4202,16.63183 12.30757,62.70818 29.10157,114.19531 l -65.28907,36.71875 -0.22656,1.42188 c 3.80606,-32.3336 -17.84141,-60.37696 -52.98047,-60.37696 -27.94161,0 -44.35917,28.72102 -42.91601,55.24414 l -0.17579,-0.56445 c -14.01324,-5.86777 -29.28331,-16.30649 -37.88671,-29.54883 l 40.90625,-91.73437 c 36.83653,-19.08331 32.83405,-59.80491 -17.58789,-41.11524 -28.70496,49.89775 -58.71778,102.21733 -69.68165,153.9668 17.78736,42.01854 48.54252,84.0385 90.05469,125.25195 -25.59101,20.42378 -53.41143,44.14439 -78.95312,69.46289 7.76323,30.8312 20.77366,59.20462 37.2832,85.93946 -28.44694,13.61704 -49.55819,16.64201 -45.9375,43.83398 3.62069,27.19197 85.5224,-4.13481 92.57617,-40.5664 -7.80984,-24.40842 -16.9556,-46.5803 -29.95898,-74.95118 29.08404,-10.44295 55.16408,-19.46398 72.71289,-28.99414"
       sodipodi:nodetypes="ccccccccsccccscccccccccsccc" /><path
       id="path1086"
       style="fill:none;stroke:#00ccff;stroke-width:10;stroke-linecap:round;stroke-linejoin:miter;stroke-dasharray:none;stroke-opacity:1"
       d="m 268.78071,318.86953 c -50.89954,-13.97797 -36.28352,-97.09774 11.23364,-97.09774 47.51716,0 70.50233,51.25474 39.00119,95.09774 m -28.56632,131.12644 c -17.54883,9.53017 -43.62818,18.55218 -72.71225,28.99514 13.00339,28.3709 22.14833,50.54221 29.95818,74.95065 -7.05378,36.43163 -88.95471,67.75847 -92.5754,40.56647 -3.62069,-27.192 17.49052,-30.2175 45.93749,-43.83456 -16.50956,-26.73486 -29.52101,-55.10807 -37.28425,-85.9393 25.54172,-25.31853 53.36307,-49.0383 78.95411,-69.4621 -41.51221,-41.21349 -72.26816,-83.2334 -90.05553,-125.25198 10.96388,-51.74952 40.97705,-104.0685 69.68203,-153.9663 50.42199,-18.689688 54.42407,22.03104 17.5875,41.11437 l -40.90545,91.73424 c 8.60341,13.24235 23.8731,23.68186 37.88636,29.54964 m 96.29872,4.27422 65.28929,-36.71855 c -16.79401,-51.48718 -25.68117,-97.56245 -29.10137,-114.1943 -10.43248,-39.232943 65.8038,-48.755414 42.0592,4.70466 9.95611,37.21993 19.68398,64.27726 39.71893,117.11551 -36.27692,38.00525 -65.18137,60.56145 -94.43706,83.85365 0,0 38.52961,82.5005 -28.90509,165.17377 28.72653,41.95876 38.34739,58.18036 55.81086,107.74998 -18.79948,28.45835 -180.04648,15.0677 -57.8056,-26.1068 -28.42934,-24.44443 -65.27898,-78.69993 -57.46098,-79.07441 15.56796,-46.32951 29.95319,-73.71701 43.59209,-89.15178" /><path
       style="fill:none;stroke:#00ccff;stroke-width:10;stroke-linecap:round;stroke-linejoin:miter;stroke-dasharray:none;stroke-opacity:1"
       d="m 168.34284,349.39865 c 0,0 -27.12156,32.17882 -20.88851,50.18017"
       id="path1184"
       sodipodi:nodetypes="cc" /><path
       style="fill:none;stroke:#00ccff;stroke-width:10;stroke-linecap:round;stroke-linejoin:miter;stroke-dasharray:none;stroke-opacity:1"
       d="m 142.89797,328.50895 c -30.36473,29.70223 -31.29358,64.07027 -29.43163,98.88068"
       id="path1186"
       sodipodi:nodetypes="cc" /><path
       style="fill:none;stroke:#00ccff;stroke-width:10;stroke-linecap:round;stroke-linejoin:miter;stroke-dasharray:none;stroke-opacity:1"
       d="M 128.18215,298.51987 C 91.875839,327.27629 69.922472,372.6912 82.237995,415.24343"
       id="path1188"
       sodipodi:nodetypes="cc" /><path
       style="fill:none;stroke:#00ccff;stroke-width:10;stroke-linecap:round;stroke-linejoin:miter;stroke-dasharray:none;stroke-opacity:1"
       d="M 118.13245,262.12627 C 85.123828,279.10721 64.05899,307.71854 56.217729,349.2065"
       id="path1190"
       sodipodi:nodetypes="cc" /><path
       style="fill:none;stroke:#00ccff;stroke-width:10;stroke-linecap:round;stroke-linejoin:miter;stroke-dasharray:none;stroke-opacity:1"
       d="m 434.78887,311.0091 c 31.29325,25.69952 55.52096,56.80877 58.19914,104.41746"
       id="path1192"
       sodipodi:nodetypes="cc" /><path
       style="fill:none;stroke:#00ccff;stroke-width:10;stroke-linecap:round;stroke-linejoin:miter;stroke-dasharray:none;stroke-opacity:1"
       d="m 463.88844,280.92319 c 37.32939,32.66636 64.82292,75.97361 71.56534,141.7304"
       id="path1194"
       sodipodi:nodetypes="cc" /><path
       style="fill:none;stroke:#00ccff;stroke-width:10;stroke-linecap:round;stroke-linejoin:miter;stroke-dasharray:none;stroke-opacity:1"
       d="m 485.33346,261.83654 c 26.52517,18.05299 45.16552,42.40711 50.56665,77.34132"
       id="path1196"
       sodipodi:nodetypes="cc" /><path
       style="fill:none;stroke:#00ccff;stroke-width:10;stroke-linecap:round;stroke-linejoin:miter;stroke-dasharray:none;stroke-opacity:1"
       d="m 499.67111,233.1088 c 18.60823,2.87301 51.71273,37.12261 55.24512,58.60687"
       id="path1198"
       sodipodi:nodetypes="cc" /><path
       style="fill:none;stroke:#00ccff;stroke-width:10;stroke-linecap:round;stroke-linejoin:miter;stroke-dasharray:none;stroke-opacity:1"
       d="m 364.39502,516.69215 c 20.5676,-6.63404 42.85991,-18.48209 72.0034,-51.04215"
       id="path1200"
       sodipodi:nodetypes="cc" /><path
       style="fill:none;stroke:#00ccff;stroke-width:10;stroke-linecap:round;stroke-linejoin:miter;stroke-dasharray:none;stroke-opacity:1"
       d="m 402.73874,533.25053 c 28.89036,-7.76697 55.01157,-20.65527 67.31937,-59.09031"
       id="path1202"
       sodipodi:nodetypes="cc" /><path
       style="fill:none;stroke:#00ccff;stroke-width:10;stroke-linecap:round;stroke-linejoin:miter;stroke-dasharray:none;stroke-opacity:1"
       d="m 432.12401,546.80984 c 19.58524,-0.23531 49.72162,-22.91058 54.91,-41.27007"
       id="path1204"
       sodipodi:nodetypes="cc" /><path
       style="fill:none;stroke:#00ccff;stroke-width:10;stroke-linecap:round;stroke-linejoin:miter;stroke-dasharray:none;stroke-opacity:1"
       d="m 131.28659,544.80984 c -8.53578,-8.11582 8.35686,-44.90934 8.35686,-44.90934"
       id="path1206"
       sodipodi:nodetypes="cc" /><path
       style="fill:none;stroke:#00ccff;stroke-width:10;stroke-linecap:round;stroke-linejoin:miter;stroke-dasharray:none;stroke-opacity:1"
       d="M 98.787615,544.11285 C 94.835432,516.0379 99.50729,494.14291 118.53995,482.5388"
       id="path1208"
       sodipodi:nodetypes="cc" /><path
       id="rect1394"
       style="opacity:1;fill:#000000;fill-opacity:1;stroke:#00ccff;stroke-width:15;stroke-linecap:round;stroke-linejoin:round;stroke-dasharray:none;paint-order:stroke fill markers"
       d="m 12.569492,26.781412 c 190.017108,-10.807799 386.050388,-10.054716 586.924148,0 -1.67684,16.77042 -26.16937,35.967726 -77.98713,42.389169 -158.0084,19.580968 -298.4056,17.961198 -430.949896,0 C 33.189347,61.39669 11.332764,39.484518 12.569492,26.781412 Z"
       sodipodi:nodetypes="ccssc" /><path
       style="fill:none;stroke:#00ccff;stroke-width:10;stroke-linecap:round;stroke-linejoin:miter;stroke-dasharray:none;stroke-opacity:1"
       d="m 42.565991,82.077832 c 5.775472,35.925828 58.938859,51.073298 80.566459,47.126808"
       id="path1397"
       sodipodi:nodetypes="cc" /><path
       style="fill:none;stroke:#00ccff;stroke-width:10;stroke-linecap:round;stroke-linejoin:miter;stroke-dasharray:none;stroke-opacity:1"
       d="m 20.841029,97.738712 c 17.76036,37.786028 46.639207,60.548448 87.068821,67.703138"
       id="path1399"
       sodipodi:nodetypes="cc" /><path
       style="fill:none;stroke:#00ccff;stroke-width:10;stroke-linecap:round;stroke-linejoin:miter;stroke-dasharray:none;stroke-opacity:1"
       d="m 26.600574,148.13882 c 7.851092,13.92341 15.050807,37.06677 66.148503,43.51942"
       id="path1401"
       sodipodi:nodetypes="cc" /><path
       style="fill:none;stroke:#00ccff;stroke-width:10;stroke-linecap:round;stroke-linejoin:miter;stroke-dasharray:none;stroke-opacity:1"
       d="m 510.61679,113.82312 c 17.90621,-6.03426 36.02529,-11.41137 49.29944,-31.745288"
       id="path1403"
       sodipodi:nodetypes="cc" /><path
       style="fill:none;stroke:#00ccff;stroke-width:10;stroke-linecap:round;stroke-linejoin:miter;stroke-dasharray:none;stroke-opacity:1"
       d="m 499.67111,139.10046 c 26.47995,-0.22907 47.58419,-5.8851 60.51582,-19.79164"
       id="path1405"
       sodipodi:nodetypes="cc" /><path
       style="fill:none;stroke:#00ccff;stroke-width:10;stroke-linecap:round;stroke-linejoin:miter;stroke-dasharray:none;stroke-opacity:1"
       d="m 494.67111,169.89853 c 31.47263,4.7178 59.31994,-2.41357 83.30227,-22.17742"
       id="path1407"
       sodipodi:nodetypes="cc" /></g></svg>
