<?xml version="1.0" encoding="UTF-8" standalone="no"?>
<!-- Created with Inkscape (http://www.inkscape.org/) -->

<svg
   version="1.1"
   id="svg797"
   width="256"
   height="256"
   viewBox="0 0 256 256"
   sodipodi:docname="fruit-apple-overlay@2x.svg"
   xml:space="preserve"
   inkscape:version="1.2 (dc2aedaf03, 2022-05-15)"
   xmlns:inkscape="http://www.inkscape.org/namespaces/inkscape"
   xmlns:sodipodi="http://sodipodi.sourceforge.net/DTD/sodipodi-0.dtd"
   xmlns="http://www.w3.org/2000/svg"
   xmlns:svg="http://www.w3.org/2000/svg"><defs
     id="defs801" /><sodipodi:namedview
     id="namedview799"
     pagecolor="#505050"
     bordercolor="#eeeeee"
     borderopacity="1"
     inkscape:pageshadow="0"
     inkscape:pageopacity="0"
     inkscape:pagecheckerboard="0"
     inkscape:showpageshadow="0"
     inkscape:deskcolor="#505050"
     showgrid="false"
     inkscape:zoom="3.4101562"
     inkscape:cx="119.34937"
     inkscape:cy="128.29324"
     inkscape:window-width="1920"
     inkscape:window-height="1056"
     inkscape:window-x="0"
     inkscape:window-y="0"
     inkscape:window-maximized="1"
     inkscape:current-layer="g803" /><g
     inkscape:groupmode="layer"
     inkscape:label="Image"
     id="g803"><g
       inkscape:label="Image"
       id="g3173"
       transform="matrix(1.14642,0,0,1.14642,0.66195167,11.542285)"
       style="fill:#ff00cd;fill-opacity:1"><path
         style="fill:#ff00cd;fill-opacity:1;stroke-width:3.25422"
         d="m 21.493272,111.44333 c -0.01999,-0.85339 -0.05267,-1.70348 -0.04883,-2.5625 -3.26e-4,0.0366 -0.0037,0.0727 -0.0039,0.10938 -0.0053,0.82358 0.01451,1.64008 0.05273,2.45312 z"
         id="path7701"
         inkscape:export-filename="/home/bewarewoof/Documents/Projects/ui/path7697-0.png"
         inkscape:export-xdpi="96"
         inkscape:export-ydpi="96"
         sodipodi:nodetypes="cccc" /><path
         style="fill:#ff00cd;fill-opacity:1;stroke-width:3.25422"
         d="m 202.27453,107.12106 c 0.0203,0.86576 0.055,1.72807 0.0508,2.59961 4.7e-4,-0.0491 0.004,-0.0973 0.004,-0.14648 0.005,-0.8236 -0.0165,-1.64009 -0.0547,-2.45313 z"
         id="path7697"
         inkscape:export-filename="/home/bewarewoof/Documents/Projects/ui/path7697-0.png"
         inkscape:export-xdpi="96"
         inkscape:export-ydpi="96"
         sodipodi:nodetypes="ccccc" /><path
         id="path9656"
         style="fill:#ff00cd;fill-opacity:1;stroke-width:0.382"
         d="m 139.93913,27.018959 c 2.61273,0.880467 5.1838,1.880013 7.70516,2.995502 -2.52136,-1.115489 -5.09243,-2.115035 -7.70516,-2.995502 z m 0,0 c -3.62659,-1.184022 -7.3245,-2.137265 -11.07155,-2.854009 3.74705,0.716744 7.44496,1.669987 11.07155,2.854009 z M 128.86758,24.16495 c -1.42534,-0.261858 -2.85676,-0.4894 -4.29304,-0.68243 1.43628,0.19303 2.8677,0.420572 4.29304,0.68243 z m -4.29304,-0.68243 c -2.34973,-0.353003 -4.71246,-0.613219 -7.08269,-0.780041 2.37023,0.166822 4.73296,0.427038 7.08269,0.780041 z m -7.08269,-0.780041 c -1.6762,-0.127379 -3.35563,-0.207974 -5.03632,-0.241691 1.68069,0.03372 3.36012,0.114312 5.03632,0.241691 z m -5.03632,-0.241691 c -2.23673,-0.0088 -4.47302,0.06542 -6.70424,0.222518 2.23122,-0.157096 4.46751,-0.23132 6.70424,-0.222518 z m -6.70424,0.222518 c -2.23915,0.120947 -4.47303,0.325175 -6.696997,0.61226 2.223967,-0.287085 4.457847,-0.491313 6.696997,-0.61226 z m -6.696997,0.61226 c -2.79824,0.363613 -5.577918,0.858057 -8.329903,1.481708 2.751985,-0.623651 5.531663,-1.118095 8.329903,-1.481708 z m -8.329903,1.481708 c -2.067025,0.517917 -4.115088,1.108765 -6.140352,1.771437 2.025264,-0.662672 4.073327,-1.25352 6.140352,-1.771437 z m -6.140352,1.771437 c -1.532819,0.461108 -3.05312,0.96285 -4.559294,1.504696 1.506174,-0.541846 3.026475,-1.043588 4.559294,-1.504696 z m -4.559294,1.504696 c -2.126358,0.783071 -4.222519,1.645822 -6.28404,2.586425 2.061521,-0.940603 4.157682,-1.803354 6.28404,-2.586425 z m -6.28404,2.586425 c -1.23611,0.580406 -2.458909,1.18875 -3.667454,1.824562 1.208545,-0.635812 2.431344,-1.244156 3.667454,-1.824562 z M 70.07325,32.464394 C 62.624553,36.285911 55.742866,41.123699 49.625515,46.839038 55.742866,41.123699 62.624553,36.285911 70.07325,32.464394 Z M 49.625515,46.839038 c -0.650268,0.584976 -1.292011,1.179359 -1.925026,1.782962 0.633015,-0.603603 1.274758,-1.197986 1.925026,-1.782962 z M 47.700489,48.622 c -1.8873,1.883917 -3.690309,3.850428 -5.403736,5.893762 1.713427,-2.043334 3.516436,-4.009845 5.403736,-5.893762 z m -5.403736,5.893762 c -0.595382,0.71303 -1.179737,1.435196 -1.752857,2.16624 0.57312,-0.731044 1.157475,-1.45321 1.752857,-2.16624 z m -1.752857,2.16624 c -1.746813,2.166131 -3.392666,4.411771 -4.932302,6.729745 1.539636,-2.317974 3.185489,-4.563614 4.932302,-6.729745 z m -4.932302,6.729745 c -4.231834,6.39183 -7.633387,13.29602 -10.122755,20.546327 -15.8810491,47.327866 9.611386,98.568846 56.939117,114.450286 47.328234,15.88231 98.570454,-9.61004 114.452134,-56.93849 11.84448,-35.33361 0.79057,-74.314677 -27.83853,-98.171139 -19.88109,-0.929837 -38.71728,11.43255 -45.12454,31.283623 -0.0203,0.06369 -0.0357,0.127734 -0.056,0.191357 l -0.0111,-0.0037 c -0.0248,0.07711 -0.0386,0.154945 -0.0635,0.232103 C 116.11484,98.770439 90.626029,111.81955 66.857679,104.14792 48.475438,98.214919 36.542929,81.620611 35.611594,63.411747 Z m 112.032696,-33.397286 0.1481,0.06206 z m 0.1481,0.06206 c 2.49307,1.109111 4.93463,2.330541 7.3172,3.660538 -2.38257,-1.329997 -4.82413,-2.551427 -7.3172,-3.660538 z m 7.3172,3.660538 c 0.0687,0.03669 0.13743,0.07348 0.20607,0.110351 -0.0686,-0.03687 -0.13733,-0.07366 -0.20607,-0.110351 z m 0.20607,0.110351 c 2.38278,1.336227 4.70375,2.779788 6.95578,4.326238 -2.25203,-1.54645 -4.573,-2.990011 -6.95578,-4.326238 z m 6.95578,4.326238 c 0.051,0.03422 0.10201,0.0685 0.15296,0.102831 -0.051,-0.03433 -0.10194,-0.06861 -0.15296,-0.102831 z m 0.15296,0.102831 c 2.27801,1.569619 4.48276,3.242988 6.60729,5.014822 -2.12453,-1.771834 -4.32928,-3.445203 -6.60729,-5.014822 z"
         inkscape:export-filename="/home/bewarewoof/Documents/Projects/ui/path7697-0.png"
         inkscape:export-xdpi="96"
         inkscape:export-ydpi="96"
         sodipodi:nodetypes="cccccccccccccccccccccccccccccccccccccccccccccccccccccccccccccccccccccccccccccccc" /><path
         style="fill:#ff00cd;fill-opacity:1;stroke-width:0.308468"
         d="m 36.614752,29.058432 c 32.554102,-6.532273 65.415138,9.729823 79.967508,39.573897 -2.56351,14.498136 -13.78132,26.6046 -29.103434,29.52429 -19.811601,3.775361 -38.933944,-9.224853 -42.709315,-29.036468 -0.0122,-0.06431 -0.01548,-0.128059 -0.02767,-0.192328 l -0.0093,0.0019 c -0.0099,-0.05299 -0.01569,-0.105892 -0.0256,-0.158949 C 41.553833,52.224308 27.693823,40.438293 11.669959,39.19928 19.284028,34.301245 27.74287,30.862458 36.614752,29.058432 Z"
         id="path9656-9-1-7-2"
         inkscape:export-filename="/home/bewarewoof/Documents/Projects/ui/path7697-0.png"
         inkscape:export-xdpi="96"
         inkscape:export-ydpi="96"
         sodipodi:nodetypes="ccccccccc" /><path
         style="fill:#ff00cd;fill-opacity:1;stroke-width:0.308468"
         d="m 126.06749,14.896454 c -3.07686,-0.0386 -6.19627,0.809213 -8.96093,2.626953 -0.0146,0.009 -0.0305,0.0197 -0.0449,0.0293 -8.03476,5.282763 -12.89375,13.572041 -14.0957,22.40625 7.50389,6.12907 13.71246,13.69076 18.26367,22.244141 1.83606,-2.584277 3.95779,-4.964625 6.32032,-7.078125 0.68709,-4.271522 3.07846,-8.25411 6.97851,-10.81836 0.024,-0.0157 0.0482,-0.02932 0.0723,-0.04492 l -0.002,-0.002 c 0.0201,-0.0131 0.0405,-0.02596 0.0606,-0.03906 0.19817,-0.13028 0.37792,-0.276623 0.56836,-0.414063 6.89457,-4.97631 8.72093,-14.536657 4.00391,-21.710937 -3.02958,-4.60777 -8.03596,-7.134979 -13.16407,-7.199219 z"
         id="path9656-9-1-7-2-2"
         inkscape:export-filename="/home/bewarewoof/Documents/Projects/ui/path7697-0.png"
         inkscape:export-xdpi="96"
         inkscape:export-ydpi="96"
         sodipodi:nodetypes="cccccccccccscc" /></g></g></svg>
