<?xml version="1.0" encoding="UTF-8" standalone="no"?>
<!-- Created with Inkscape (http://www.inkscape.org/) -->

<svg
   version="1.1"
   id="svg1037"
   width="256"
   height="256"
   viewBox="0 0 256 256"
   sodipodi:docname="fruit-grapes-overlay@2x.svg"
   inkscape:version="1.2 (dc2aedaf03, 2022-05-15)"
   xmlns:inkscape="http://www.inkscape.org/namespaces/inkscape"
   xmlns:sodipodi="http://sodipodi.sourceforge.net/DTD/sodipodi-0.dtd"
   xmlns="http://www.w3.org/2000/svg"
   xmlns:svg="http://www.w3.org/2000/svg">
  <defs
     id="defs1041" />
  <sodipodi:namedview
     id="namedview1039"
     pagecolor="#505050"
     bordercolor="#eeeeee"
     borderopacity="1"
     inkscape:pageshadow="0"
     inkscape:pageopacity="0"
     inkscape:pagecheckerboard="0"
     inkscape:showpageshadow="0"
     inkscape:deskcolor="#505050"
     showgrid="false"
     inkscape:zoom="3.1965218"
     inkscape:cx="63.506528"
     inkscape:cy="147.50408"
     inkscape:window-width="1920"
     inkscape:window-height="1056"
     inkscape:window-x="0"
     inkscape:window-y="0"
     inkscape:window-maximized="1"
     inkscape:current-layer="g1043" />
  <g
     inkscape:groupmode="layer"
     inkscape:label="Image"
     id="g1043">
    <path
       id="path5769-5"
       style="fill:#00cdff;fill-opacity:1;stroke:none;stroke-width:7.27404"
       d="m 98.691406,31.029297 c -4.882788,2.909709 -10.388707,4.720924 -16.195312,5.144531 l -0.0078,0.002 h -0.0098 c -0.6762,0.04617 -1.355866,-0.0055 -2.033204,0.0039 -1.00229,3.167803 -1.609639,6.44839 -1.582031,9.765624 0.0072,0.50631 0.02597,1.011209 0.05859,1.517579 0.253682,3.43062 1.091213,6.786758 2.457031,9.933593 0.946876,-0.08761 1.90465,-0.136669 2.875,-0.136718 3.867266,-3e-5 7.560774,0.717136 10.962891,2.015625 l 0.167969,0.07031 C 94.332008,56.598029 93.656544,53.650962 93.431641,50.558594 92.906879,43.34315 94.9131,36.549732 98.691406,31.029297 Z" />
    <path
       style="fill:#00cdff;fill-opacity:1;stroke:none;stroke-width:7.27404"
       d="m 193.1187,169.33133 c -1.85851,1.25059 -3.83544,2.33388 -5.90625,3.24433 -0.0611,0.0269 -0.11916,0.0596 -0.18048,0.0861 h -0.002 c -0.0232,0.0105 -0.0464,0.0203 -0.0697,0.0308 l -0.0123,0.006 -0.0105,0.004 c -0.0135,0.005 -0.0275,0.0105 -0.0411,0.0164 -0.73947,0.31705 -1.49323,0.60733 -2.25586,0.87774 -0.004,0.001 -0.007,0.003 -0.0105,0.004 -0.77631,0.27501 -1.56616,0.52167 -2.36455,0.74648 h -0.002 l -0.002,0.002 c -1.6203,0.45602 -3.28185,0.80638 -4.98134,1.04384 -0.0193,0.003 -0.0381,0.007 -0.0574,0.0105 l -0.0267,0.004 -0.0287,0.004 c -0.0557,0.007 -0.11046,0.0142 -0.16611,0.0205 -0.005,5.7e-4 -0.0105,-5.6e-4 -0.0144,0 -0.0143,0.002 -0.0288,0.002 -0.043,0.004 -0.76238,0.0995 -1.5314,0.1784 -2.30712,0.23174 -0.0664,0.005 -0.13258,0.0105 -0.19894,0.0144 -0.79185,0.0502 -1.58914,0.0856 -2.39326,0.0861 -0.006,2e-5 -0.0131,-1e-5 -0.0205,0 h -0.008 -0.002 c -3.54252,-0.003 -6.98222,-0.50592 -10.25595,-1.43144 -2.64045,10.6712 -9.75253,19.45583 -19.13174,24.41045 3.32799,13.58435 15.38273,23.34789 29.60508,23.35839 15.87633,-9.2e-4 28.86608,-11.97994 30.4623,-27.42305 a 34.270329,34.270329 0 0 0 0.0123,-0.10048 c 0.10185,-1.0186 0.15551,-2.05266 0.15585,-3.09873 a 34.270329,34.270329 0 0 0 0,-0.008 v -0.002 a 34.270329,34.270329 0 0 0 0,-0.002 34.270329,34.270329 0 0 0 -0.69522,-6.32666 c -1.32564,-6.02649 -4.50066,-11.52248 -9.04804,-15.81358 z"
       id="path5779" />
    <path
       style="fill:#00cdff;fill-opacity:1;stroke:none;stroke-width:7.27404"
       d="m 116.36392,150.08491 c -2.74627,10.03943 -9.5257,18.49931 -18.746196,23.40967 3.288576,13.64309 15.373166,23.46222 29.633786,23.47324 3.58869,-10e-4 7.03604,-0.62668 10.23955,-1.77187 l 1.73906,-0.73828 c 2.50051,-1.06274 4.8128,-2.43649 6.89678,-4.0667 0.006,-0.005 0.0122,-0.008 0.0185,-0.0123 0.42836,-0.33558 0.84024,-0.68903 1.24892,-1.04589 4.79797,-4.25036 8.26434,-10.0137 9.67354,-16.61954 -8.95331,-4.59144 -15.90575,-12.65945 -18.96152,-22.56679 -3.01452,0.90357 -6.18514,1.43918 -9.46026,1.55859 -0.002,1.1e-4 -0.004,-9e-5 -0.006,0 -0.46175,0.0168 -0.9226,0.0349 -1.38837,0.0349 h -0.008 -0.008 -0.002 c -0.005,-2e-5 -0.009,2e-5 -0.0144,0 -0.0158,0 -0.0314,-0.002 -0.0471,-0.002 -3.67479,-0.0221 -7.31281,-0.58744 -10.80762,-1.65293 z"
       id="path5777" />
    <path
       style="fill:#00cdff;fill-opacity:1;stroke:none;stroke-width:7.27404"
       d="m 116.33008,142.75625 c -0.008,0.28791 -0.0115,0.5771 -0.0267,0.86338 0.0178,0.007 0.0355,0.0152 0.0533,0.0226 -4.2e-4,-0.29743 -0.0193,-0.59013 -0.0267,-0.88593 z"
       id="path5775" />
    <path
       style="fill:#00cdff;fill-opacity:1;stroke:none;stroke-width:7.27404"
       d="m 80.253857,111.04326 c -16.961333,1e-5 -30.632519,13.67119 -30.632519,30.63252 0,16.96134 13.671186,30.63251 30.632519,30.63252 16.961341,0 30.634563,-13.67118 30.634573,-30.63252 0,-16.96133 -13.673232,-30.63252 -30.634573,-30.63252 z"
       id="path5773" />
    <path
       style="fill:#00cdff;fill-opacity:1;stroke:none;stroke-width:7.27404"
       d="m 172.02762,109.98266 c -3.18995,0.0133 -6.31106,0.66837 -9.33105,1.66114 0.12741,1.26109 0.19483,2.54099 0.19482,3.83495 1.1e-4,14.49578 -8.19443,27.11907 -20.18789,33.49337 1.29962,4.58617 3.60655,8.7024 6.65274,12.11396 0.0412,0.0457 0.0795,0.094 0.12099,0.13945 0.47333,0.52373 0.9711,1.02242 1.47861,1.51142 0.33757,0.32197 0.68724,0.63259 1.03975,0.93926 0.14012,0.12313 0.28012,0.24655 0.42246,0.36709 2.32804,1.95173 4.95991,3.57052 7.83603,4.77627 l 0.0246,0.008 0.14356,0.0615 c 1.19673,0.49894 2.42475,0.91985 3.675,1.26328 0.0628,0.0141 0.12588,0.0274 0.18867,0.041 l 0.0841,0.0185 0.082,0.0205 c 1.18086,0.31513 2.38088,0.5602 3.59092,0.73212 l 0.0144,0.002 c 1.3108,0.1799 2.63088,0.27357 3.95391,0.28302 0.66371,-0.001 1.32697,-0.0254 1.98926,-0.0697 0.008,-5.6e-4 0.0183,5.8e-4 0.0267,0 0.67111,-0.0455 1.34112,-0.11336 2.00772,-0.20303 l 0.0287,-0.004 0.0287,-0.002 c 0.0476,-0.005 0.096,-0.0122 0.14355,-0.0185 1.30193,-0.18256 2.58978,-0.44755 3.85751,-0.7957 l 0.008,-0.002 0.006,-0.002 c 0.0664,-0.018 0.13267,-0.037 0.19893,-0.0553 1.27804,-0.35836 2.5321,-0.79975 3.75293,-1.3207 0.0238,-0.0105 0.048,-0.0203 0.0718,-0.0308 l 0.008,-0.004 0.0105,-0.002 c 1.78445,-0.76977 3.45123,-1.76381 5.05517,-2.85469 l 0.23993,-0.0512 c 7.98731,-5.51998 13.20712,-14.7382 13.20704,-25.2164 0,-0.51608 -0.0508,-1.01813 -0.0759,-1.52783 a 34.270329,34.270329 0 0 0 -0.43272,-3.9252 c -0.0868,-0.48573 -0.18392,-0.96635 -0.29325,-1.44375 a 34.270329,34.270329 0 0 0 -1.99541,-5.86934 c -0.20001,-0.43693 -0.40381,-0.87264 -0.62344,-1.29814 a 34.270329,34.270329 0 0 0 -2.19229,-3.60732 c -5.5372,-7.83989 -14.6499,-12.96043 -25.01133,-12.96299 z"
       id="path5771" />
    <path
       style="fill:#00cdff;fill-opacity:1;stroke:none;stroke-width:7.27404"
       d="m 127.02945,86.041247 c -0.40785,0.0019 -0.81351,0.01678 -1.22022,0.03486 -2.8093,0.151949 -5.56178,0.777712 -8.23389,1.665235 0.0625,0.887483 0.10458,1.781436 0.10458,2.684472 v 0.0021 0.0021 0.01029 c -0.0162,10.301806 -4.24238,20.102866 -11.60332,27.203616 6.26782,6.92631 9.95855,15.84444 9.96065,25.28203 v 0.008 0.0105 c -0.003,0.67777 -0.10384,1.34993 -0.14356,2.02617 3.08676,1.22943 6.3138,2.07353 9.62431,2.28662 0.5055,0.0295 1.01223,0.047 1.51964,0.0512 4.12702,-0.005 8.21055,-0.84431 12.00527,-2.46709 l 1.31045,-0.55986 c 10.25444,-4.94352 17.30253,-15.42632 17.30244,-27.60557 1e-5,-0.9916 -0.0502,-1.97172 -0.1415,-2.93877 l -0.26455,-1.73496 c -1.12507,-7.35018 -4.88437,-14.037305 -10.57793,-18.820022 l -0.0205,-0.01846 c -4.43511,-3.704317 -9.80271,-6.059463 -15.47314,-6.837305 -0.11995,-0.01616 -0.24054,-0.03034 -0.36094,-0.04512 -0.32591,-0.04076 -0.6526,-0.07632 -0.98028,-0.106641 -0.16953,-0.01533 -0.3403,-0.02639 -0.51064,-0.03897 -0.29739,-0.0225 -0.59559,-0.04563 -0.89414,-0.05947 -0.45536,-0.02044 -0.9136,-0.03436 -1.37402,-0.03486 -0.009,-1.4e-5 -0.0192,5e-6 -0.0287,0 z"
       id="path5769" />
    <path
       style="fill:#00cdff;fill-opacity:1;stroke:none;stroke-width:7.27404"
       d="m 172.00771,61.274409 c -3.2338,0.01348 -6.39748,0.684179 -9.45615,1.700099 0.0624,0.885458 0.10447,1.777375 0.10458,2.67832 v 0.0021 0.0041 0.0021 0.0021 0.0021 c -0.001,0.639072 -0.0187,1.275623 -0.0533,1.909277 -0.47327,9.13724 -4.23686,17.775706 -10.55128,24.332519 4.06227,4.222875 7.1628,9.376206 8.93116,15.110146 3.49346,-1.05557 7.1247,-1.61177 10.78916,-1.62627 h 0.006 0.008 c 8.37346,-6e-5 16.12094,2.738 22.40273,7.35821 3.87054,-4.10811 6.56475,-9.14399 7.75195,-14.60361 a 34.270329,34.270329 0 0 0 0.69111,-6.236425 c 2e-5,-1.050903 -0.0533,-2.087849 -0.15585,-3.111035 a 34.270329,34.270329 0 0 0 -0.0105,-0.08204 C 200.87668,73.267454 187.88627,61.27844 172.00771,61.274409 Z"
       id="path5767" />
    <path
       style="fill:#00cdff;fill-opacity:1;stroke:none;stroke-width:7.27404"
       d="m 82.253904,61.258983 c -16.960095,8.77e-4 -30.631542,13.672699 -30.63252,30.63252 v 0.0021 c 0.01153,7.69909 3.043733,14.949717 8.194923,20.540627 5.882597,-3.75836 12.858216,-5.94727 20.337597,-5.94727 0.320264,0 0.637269,0.0162 0.955663,0.0246 0.379004,-0.0126 0.757671,-0.0239 1.138185,-0.0246 h 0.0041 0.0021 c 7.751409,0.002 15.214523,2.50414 21.537308,6.89472 4.24521,-4.25005 7.20369,-9.57554 8.44307,-15.378799 0.0267,-0.127551 0.0509,-0.255513 0.0759,-0.383497 0.0648,-0.324055 0.12445,-0.649328 0.17842,-0.976171 0.0501,-0.309737 0.0928,-0.621211 0.1333,-0.933106 0.025,-0.1889 0.0545,-0.376316 0.0759,-0.566016 0.0504,-0.453462 0.0888,-0.910633 0.11894,-1.367871 0.005,-0.07468 0.0143,-0.148754 0.0185,-0.223535 0.0323,-0.552619 0.0491,-1.106162 0.0512,-1.663184 v -0.0021 c -9.4e-4,-0.718057 -0.0311,-1.435498 -0.082,-2.151269 -0.008,-0.124003 -0.0182,-0.247606 -0.0287,-0.371192 -0.0585,-0.701019 -0.13908,-1.400176 -0.24609,-2.095898 l -0.008,-0.05537 C 110.90096,76.742913 103.99572,67.863756 94.246872,63.713769 L 93.21738,63.274901 C 89.815259,61.976404 86.121175,61.258953 82.253904,61.258983 Z"
       id="path5765" />
    <path
       style="fill:#00cdff;fill-opacity:1;stroke:none;stroke-width:7.27404"
       d="m 127.22929,36.261133 c -14.21494,0.01432 -26.26912,9.775457 -29.598929,23.356348 9.145269,4.836442 16.084969,13.301494 18.889749,23.465038 3.011,-0.898785 6.12439,-1.421733 9.27158,-1.552441 0.47268,-0.02515 0.94575,-0.03902 1.42119,-0.04101 h 0.008 0.002 0.008 c 0.55881,1.57e-4 1.11384,0.01717 1.66933,0.04307 0.31945,0.01394 0.63624,0.03557 0.95362,0.05742 0.14356,0.0105 0.28738,0.02062 0.43066,0.03281 6.86411,0.551103 13.21727,2.937122 18.56983,6.671191 4.92643,-4.970223 8.10281,-11.392772 8.84091,-18.327833 0.0146,-0.142354 0.0244,-0.285889 0.037,-0.428613 0.0322,-0.351395 0.0624,-0.702358 0.082,-1.056152 0.0283,-0.527669 0.0461,-1.055882 0.0471,-1.587305 -8.4e-4,-0.726288 -0.0321,-1.45194 -0.0841,-2.175879 -0.007,-0.106807 -0.0142,-0.213424 -0.0226,-0.319921 -0.0601,-0.729898 -0.14359,-1.457893 -0.25634,-2.182031 l -0.082,-0.52295 c -0.0459,-0.270108 -0.11936,-0.530136 -0.17227,-0.797753 A 34.270329,34.270329 0 0 0 155.9427,56.215243 C 151.62275,44.549208 140.43311,36.262775 127.23544,36.261133 Z"
       id="path4529-3" />
  </g>
</svg>
