<?xml version="1.0" encoding="UTF-8" standalone="no"?>
<!-- Created with Inkscape (http://www.inkscape.org/) -->

<svg
   version="1.1"
   id="svg8147"
   width="2069.3333"
   height="432"
   viewBox="0 0 2069.3333 432"
   sodipodi:docname="taiko-Slider-fail@2x.svg"
   xml:space="preserve"
   inkscape:version="1.2.2 (b0a8486541, 2022-12-01)"
   xmlns:inkscape="http://www.inkscape.org/namespaces/inkscape"
   xmlns:sodipodi="http://sodipodi.sourceforge.net/DTD/sodipodi-0.dtd"
   xmlns="http://www.w3.org/2000/svg"
   xmlns:svg="http://www.w3.org/2000/svg"><defs
     id="defs8151" /><sodipodi:namedview
     id="namedview8149"
     pagecolor="#505050"
     bordercolor="#eeeeee"
     borderopacity="1"
     inkscape:pageshadow="0"
     inkscape:pageopacity="0"
     inkscape:pagecheckerboard="0"
     inkscape:showpageshadow="0"
     inkscape:deskcolor="#505050"
     showgrid="false"
     inkscape:zoom="0.41770156"
     inkscape:cx="963.60664"
     inkscape:cy="178.35701"
     inkscape:window-width="1920"
     inkscape:window-height="1056"
     inkscape:window-x="0"
     inkscape:window-y="0"
     inkscape:window-maximized="1"
     inkscape:current-layer="g8153" /><g
     inkscape:groupmode="layer"
     inkscape:label="Image"
     id="g8153"><path
       id="rect286-6"
       style="fill:#ffcc00;fill-opacity:1;stroke-width:30.8791;stroke-linecap:round;stroke-linejoin:round;paint-order:stroke fill markers"
       d="M 1386.5964,4.6805508e-5 C 1294.4332,148.30462 1123.8892,307.8194 1200.3992,431.99991 l -365.57242,-5e-5 -152.08962,3e-5 186.19674,-432.000338 424.5643,1.808967e-5 z"
       sodipodi:nodetypes="ccccccc" /><path
       id="rect286-3"
       style="fill:#ff00cc;fill-opacity:1;stroke-width:30.8791;stroke-linecap:round;stroke-linejoin:round;paint-order:stroke fill markers"
       d="M 868.9339,-4.48e-4 C 805.8555,341.72829 743.91811,460.61003 682.73591,431.99986 l -424.56277,-2e-5 -93.09915,7e-5 C 3.6374535,304.01339 118.11981,156.2579 351.27146,2.0203065e-5 l 365.57491,2.6602443e-5 z"
       sodipodi:nodetypes="ccccccc" /><path
       id="rect286-3-6"
       style="fill:#00ccff;fill-opacity:1;stroke-width:30.8791;stroke-linecap:round;stroke-linejoin:round;paint-order:stroke fill markers"
       d="M 351.27146,-4.48e-4 C 119.23026,154.1854 4.7256204,301.32789 165.0734,431.99986 l -424.56279,-2e-5 -93.09915,7e-5 L -166.39106,2.8715841e-5 199.18386,4.6805508e-5 Z"
       sodipodi:nodetypes="ccccccc" /><path
       id="rect286-3-6-2"
       style="fill:#00ccff;fill-opacity:1;stroke-width:30.8791;stroke-linecap:round;stroke-linejoin:round;paint-order:stroke fill markers"
       d="M 2421.9218,8.2984842e-5 2235.7236,432.0004 l -424.5628,-4e-5 -93.0991,9e-5 186.1975,-431.99989029932 365.575,1.808967e-5 z" /><path
       id="rect286-6-0"
       style="fill:#030000;fill-opacity:1;stroke-width:30.8791;stroke-linecap:round;stroke-linejoin:round;paint-order:stroke fill markers"
       d="M 1904.2591,5.511879e-4 C 2002.3631,55.867122 1997.5921,168.34066 1718.0617,432.00045 l -365.5724,-9e-5 -152.0896,2e-5 C 1119.864,205.90635 1210.5367,78.375038 1386.5964,4.6805508e-5 l 424.5643,1.8089667e-5 z"
       sodipodi:nodetypes="ccccccc" /></g></svg>
