<?xml version="1.0" encoding="UTF-8" standalone="no"?>
<!-- Created with Inkscape (http://www.inkscape.org/) -->

<svg
   version="1.1"
   id="svg8177"
   width="2069.3333"
   height="432"
   viewBox="0 0 2069.3333 432"
   sodipodi:docname="taiko-Slider@2x.svg"
   xml:space="preserve"
   inkscape:version="1.2.2 (b0a8486541, 2022-12-01)"
   xmlns:inkscape="http://www.inkscape.org/namespaces/inkscape"
   xmlns:sodipodi="http://sodipodi.sourceforge.net/DTD/sodipodi-0.dtd"
   xmlns="http://www.w3.org/2000/svg"
   xmlns:svg="http://www.w3.org/2000/svg"><defs
     id="defs8181" /><sodipodi:namedview
     id="namedview8179"
     pagecolor="#505050"
     bordercolor="#eeeeee"
     borderopacity="1"
     inkscape:pageshadow="0"
     inkscape:pageopacity="0"
     inkscape:pagecheckerboard="0"
     inkscape:showpageshadow="0"
     inkscape:deskcolor="#505050"
     showgrid="false"
     inkscape:zoom="0.4330294"
     inkscape:cx="1035.7264"
     inkscape:cy="405.28426"
     inkscape:window-width="1920"
     inkscape:window-height="1056"
     inkscape:window-x="0"
     inkscape:window-y="0"
     inkscape:window-maximized="1"
     inkscape:current-layer="g8183" /><g
     inkscape:groupmode="layer"
     inkscape:label="Image"
     id="g8183"><path
       id="rect286-6"
       style="fill:#ffcc00;fill-opacity:1;stroke-width:30.8791;stroke-linecap:round;stroke-linejoin:round;paint-order:stroke fill markers"
       d="M 1551.6705,4.6805508e-5 1365.4733,431.99991 l -365.57242,-5e-5 -152.08962,3e-5 186.19674,-432.000338 424.5643,1.808967e-5 z" /><path
       id="rect286-3"
       style="fill:#ff00cc;fill-opacity:1;stroke-width:30.8791;stroke-linecap:round;stroke-linejoin:round;paint-order:stroke fill markers"
       d="m 1034.008,-4.48e-4 -186.19799,432.000308 -424.56277,-2e-5 -93.09915,7e-5 L 516.34556,2.0203065e-5 881.92047,4.6805508e-5 Z" /><path
       id="rect286-3-6"
       style="fill:#00ccff;fill-opacity:1;stroke-width:30.8791;stroke-linecap:round;stroke-linejoin:round;paint-order:stroke fill markers"
       d="M 516.34556,-4.48e-4 330.1475,431.99986 l -424.562787,-2e-5 -93.099153,7e-5 L -1.3169636,2.8715841e-5 364.25796,4.6805508e-5 Z" /><path
       id="rect286-3-6-2"
       style="fill:#00ccff;fill-opacity:1;stroke-width:30.8791;stroke-linecap:round;stroke-linejoin:round;paint-order:stroke fill markers"
       d="M 2586.9959,8.2984842e-5 2400.7977,432.0004 l -424.5628,-4e-5 -93.0991,9e-5 186.1975,-431.99989029932 365.575,1.808967e-5 z" /><path
       id="rect286-6-0"
       style="fill:#030000;fill-opacity:1;stroke-width:30.8791;stroke-linecap:round;stroke-linejoin:round;paint-order:stroke fill markers"
       d="M 2069.3332,5.511879e-4 1883.1358,432.00045 l -365.5724,-9e-5 -152.0896,2e-5 L 1551.6705,4.6805508e-5 1976.2348,6.4895175e-5 Z" /></g></svg>
