<?xml version="1.0" encoding="UTF-8" standalone="no"?>
<!-- Created with Inkscape (http://www.inkscape.org/) -->

<svg
   version="1.1"
   id="svg8207"
   width="362"
   height="400"
   viewBox="0 0 362 400"
   sodipodi:docname="taiko-bar-left@2x.svg"
   inkscape:version="1.2.2 (b0a8486541, 2022-12-01)"
   inkscape:export-filename="../../../.local/share/osu-stable/Skins/Inkjet/taiko-bar-left@2x.png"
   inkscape:export-xdpi="96"
   inkscape:export-ydpi="96"
   xmlns:inkscape="http://www.inkscape.org/namespaces/inkscape"
   xmlns:sodipodi="http://sodipodi.sourceforge.net/DTD/sodipodi-0.dtd"
   xmlns="http://www.w3.org/2000/svg"
   xmlns:svg="http://www.w3.org/2000/svg">
  <defs
     id="defs8211" />
  <sodipodi:namedview
     id="namedview8209"
     pagecolor="#505050"
     bordercolor="#eeeeee"
     borderopacity="1"
     inkscape:pageshadow="0"
     inkscape:pageopacity="0"
     inkscape:pagecheckerboard="0"
     inkscape:showpageshadow="0"
     inkscape:deskcolor="#505050"
     showgrid="false"
     inkscape:zoom="1.3322355"
     inkscape:cx="-72.80995"
     inkscape:cy="316.3855"
     inkscape:window-width="1920"
     inkscape:window-height="1056"
     inkscape:window-x="0"
     inkscape:window-y="0"
     inkscape:window-maximized="1"
     inkscape:current-layer="g8213" />
  <g
     inkscape:groupmode="layer"
     inkscape:label="Image"
     id="g8213">
    <path
       id="path396-7-5-5"
       style="fill:#ffcc00;fill-opacity:1;stroke-width:17.522;stroke-linecap:round;stroke-linejoin:round;paint-order:stroke fill markers"
       d="M 183.47027,35.787582 V 77.84053 a 126.15884,126.15884 0 0 1 109.25734,63.07941 126.15884,126.15884 0 0 1 0,126.15884 126.15884,126.15884 0 0 1 -109.25734,63.07941 v 42.05295 a 168.21178,168.21178 0 0 0 145.67586,-84.1059 168.21178,168.21178 0 0 0 0,-168.21176 168.21178,168.21178 0 0 0 -145.67586,-84.105898 z" />
    <path
       id="path396-7-3"
       style="fill:#ffcc00;fill-opacity:1;stroke-width:17.522;stroke-linecap:round;stroke-linejoin:round;paint-order:stroke fill markers"
       d="m 174.72973,35.787584 a 168.21178,168.21178 0 0 0 -145.675848,84.105896 168.21178,168.21178 0 0 0 0,168.21176 168.21178,168.21178 0 0 0 145.675848,84.1059 v -42.05295 a 126.15884,126.15884 0 0 1 -109.257335,-63.07941 126.15884,126.15884 0 0 1 0,-126.15884 126.15884,126.15884 0 0 1 109.257335,-63.079408 z" />
    <path
       style="fill:#ffcc00;fill-opacity:1;stroke-width:12.4845;stroke-linecap:round;stroke-linejoin:round;paint-order:stroke fill markers"
       id="path396-7"
       sodipodi:type="arc"
       sodipodi:cx="203.99936"
       sodipodi:cy="-174.63419"
       sodipodi:rx="119.85088"
       sodipodi:ry="119.85088"
       sodipodi:start="0"
       sodipodi:end="3.1415927"
       sodipodi:arc-type="slice"
       d="m 323.85024,-174.63419 a 119.85088,119.85088 0 0 1 -59.92544,103.793915 119.85088,119.85088 0 0 1 -119.85089,-3e-6 A 119.85088,119.85088 0 0 1 84.148476,-174.63419 H 203.99936 Z"
       transform="rotate(90)" />
    <path
       style="fill:#ffcc00;fill-opacity:1;stroke-width:12.4845;stroke-linecap:round;stroke-linejoin:round;paint-order:stroke fill markers"
       id="path396-7-5"
       sodipodi:type="arc"
       sodipodi:cx="-203.99936"
       sodipodi:cy="183.37474"
       sodipodi:rx="119.85088"
       sodipodi:ry="119.85088"
       sodipodi:start="0"
       sodipodi:end="3.1415927"
       sodipodi:arc-type="slice"
       d="m -84.148476,183.37474 a 119.85088,119.85088 0 0 1 -59.925444,103.79391 119.85088,119.85088 0 0 1 -119.85088,0 119.85088,119.85088 0 0 1 -59.92544,-103.79391 h 119.85088 z"
       transform="rotate(-90)" />
  </g>
</svg>
